<svg width="436" height="100" viewBox="0 0 436 100" fill="none" xmlns="http://www.w3.org/2000/svg">
<path d="M245.127 4.65333C201.9 -1.36832 158.954 0.312995 122.646 5.20216C86.8688 10.0297 55.4345 17.7383 30.7032 27.7516C18.1545 32.837 6.95709 38.676 2.29073 45.7867C-2.04703 52.3651 -0.538962 60.0585 9.6105 67.1947C19.76 74.3309 36.3075 79.5638 53.838 83.7293C74.4731 88.6382 96.8012 92.1356 119.114 94.5364C163.17 99.2721 208.028 100.255 249.954 99.2577C291.881 98.2603 329.855 94.9863 365.296 89.5157C397.888 84.4931 430.729 76.7398 435.122 62.3507C437.133 55.7603 432.706 48.4725 420.125 42.1175C407.545 35.7625 390.067 31.3197 372.355 27.719C328.589 18.826 280.885 14.2728 235.556 12.2536C190.226 10.2343 142.21 10.8076 96.9326 12.0172C85.9652 12.3062 75.0429 12.644 64.1215 12.9729C62.7409 13.0114 60.2279 13.3605 61.4332 14.0728C62.6385 14.7852 66.2431 14.7838 67.7494 14.7403C110.654 13.4699 153.732 12.2257 198.088 12.9641C242.445 13.7025 286.952 16.4343 330.982 22.9338C366.502 28.1754 411.459 36.6665 422.937 51.5399C428.189 58.3449 425.792 65.0381 418.618 70.4406C411.038 76.1558 397.776 80.3574 383.163 83.5582C368.55 86.7591 351.171 89.3386 333.943 91.4034C316.716 93.4682 298.028 95.1131 279.124 96.1711C241.063 98.3061 200.53 98.3918 159.571 95.9709C137.822 94.6864 115.755 92.584 94.3172 89.1933C74.8507 86.1147 55.2113 82.012 39.0014 76.4066C23.2501 70.9708 12.9356 64.2331 10.2679 57.1215C7.6003 50.0098 12.6262 43.0587 21.4237 37.4388C30.4095 31.6877 42.9877 26.8083 56.2878 22.4693C69.5879 18.1302 84.1481 14.456 100.001 11.3704C131.453 5.23572 169.009 0.886507 209.622 3.01663C219.533 3.53154 229.578 4.4573 239.427 5.83163C241.576 6.12611 244.19 6.2641 245.882 5.86816C247.138 5.56996 247.176 4.93789 245.127 4.65333Z" fill="#FDDF67"/>
</svg>
