<svg width="289" height="88" viewBox="0 0 289 88" fill="none" xmlns="http://www.w3.org/2000/svg">
<g clip-path="url(#clip0_102_1273)">
<path d="M15.8125 77.0549C15.8125 79.3847 17.7014 81.2736 20.0312 81.2736C22.3611 81.2736 24.25 79.3844 24.25 77.0549H23.6219L20.8825 70.081C21.0546 69.951 21.1942 69.783 21.2905 69.59C21.3868 69.397 21.4371 69.1844 21.4375 68.9688C21.4375 68.1925 20.8075 67.5625 20.0312 67.5625C19.8258 67.5625 19.6322 67.609 19.4564 67.6877C19.1694 67.5761 18.8833 67.4622 18.598 67.3461C17.5225 66.9051 16.2711 66.3974 14.968 66.1049C14.8155 65.7065 14.5457 65.3638 14.1944 65.1219C13.843 64.88 13.4266 64.7503 13 64.75C12.5734 64.7503 12.1569 64.8801 11.8055 65.122C11.4542 65.364 11.1845 65.7068 11.032 66.1052C9.7285 66.3974 8.47712 66.9051 7.40162 67.3465C7.15675 67.447 6.81212 67.5828 6.54325 67.6881C6.36285 67.6059 6.167 67.5631 5.96875 67.5625C5.59579 67.5625 5.2381 67.7107 4.97438 67.9744C4.71066 68.2381 4.5625 68.5958 4.5625 68.9688C4.56297 69.1843 4.61328 69.3969 4.70949 69.5899C4.8057 69.7828 4.94521 69.9509 5.11713 70.081L2.37775 77.0549H1.75C1.75 79.3847 3.63888 81.2736 5.96875 81.2736C8.29862 81.2736 10.1875 79.3847 10.1875 77.0549H9.55938L6.82 70.0814C6.99199 69.9512 7.13157 69.7831 7.22785 69.5901C7.32412 69.3971 7.37448 69.1844 7.375 68.9688C7.375 68.9361 7.36713 68.9054 7.36525 68.8731L7.71588 68.731C8.7025 68.3256 9.84513 67.8595 11.0177 67.5749C11.1238 67.8682 11.2936 68.1344 11.5148 68.3543C11.736 68.5742 12.0033 68.7423 12.2972 68.8465V70.996H11.866V77.758H11.3973V81.0689C9.07113 81.5005 7.375 82.8445 7.375 84.4375H6.67188V85.8438H5.26562V87.25H20.7344V85.8438H19.3281V84.4375H18.625C18.625 82.8445 16.9281 81.5005 14.6031 81.0689V77.758H14.1344V70.9956H13.7031V68.8461C13.997 68.7418 14.2642 68.5737 14.4853 68.3538C14.7065 68.1339 14.8762 67.8678 14.9823 67.5745C16.1552 67.8591 17.2971 68.3252 18.2845 68.7306C18.4045 68.7801 18.5177 68.8255 18.6348 68.8731C18.6325 68.9054 18.625 68.9361 18.625 68.9688C18.6255 69.1843 18.6758 69.3969 18.772 69.5899C18.8682 69.7828 19.0077 69.9509 19.1796 70.081L16.4403 77.0545H15.8125V77.0549ZM5.96875 68.2656C6.06248 68.2635 6.15569 68.2801 6.2429 68.3145C6.33012 68.3489 6.40958 68.4004 6.47661 68.4659C6.54365 68.5315 6.59691 68.6097 6.63326 68.6961C6.66961 68.7826 6.68833 68.8754 6.6883 68.9691C6.68828 69.0629 6.66951 69.1557 6.63311 69.2421C6.59671 69.3285 6.54341 69.4067 6.47634 69.4722C6.40927 69.5377 6.32978 69.5892 6.24255 69.6235C6.15532 69.6579 6.0621 69.6744 5.96837 69.6723C5.78466 69.668 5.60991 69.592 5.48151 69.4605C5.35311 69.329 5.28125 69.1525 5.2813 68.9688C5.28135 68.785 5.35331 68.6085 5.48178 68.4771C5.61024 68.3457 5.78503 68.2698 5.96875 68.2656ZM8.83337 77.0549H3.103L5.73625 70.3517C5.81238 70.3645 5.88925 70.375 5.96875 70.375C6.04825 70.375 6.12475 70.3645 6.2005 70.3514L8.83337 77.0549ZM20.0312 68.2656C20.125 68.2635 20.2182 68.2801 20.3054 68.3145C20.3926 68.3489 20.4721 68.4004 20.5391 68.4659C20.6061 68.5315 20.6594 68.6097 20.6958 68.6961C20.7321 68.7826 20.7508 68.8754 20.7508 68.9691C20.7508 69.0629 20.732 69.1557 20.6956 69.2421C20.6592 69.3285 20.6059 69.4067 20.5388 69.4722C20.4718 69.5377 20.3923 69.5892 20.3051 69.6235C20.2178 69.6579 20.1246 69.6744 20.0309 69.6723C19.8472 69.668 19.6724 69.592 19.544 69.4605C19.4156 69.329 19.3438 69.1525 19.3438 68.9688C19.3439 68.785 19.4158 68.6085 19.5443 68.4771C19.6727 68.3457 19.8475 68.2698 20.0312 68.2656ZM19.7991 70.3517C19.8757 70.366 19.9534 70.3738 20.0312 70.375C20.1104 70.375 20.1873 70.3645 20.263 70.3514L22.8959 77.0545H17.1651L19.7991 70.3517Z" fill="black"/>
</g>
<g clip-path="url(#clip1_102_1273)">
<path d="M9.68847 11.7814L5.27055 9.29021L6.80607 6.59741L11.2249 9.08717L9.68847 11.7814ZM18.5061 14.0796L11.0411 9.87485L10.2736 11.2227L17.7376 15.428L18.5061 14.0796ZM19.4123 14.5908L18.6424 15.9377L22.492 18.1044L23.2619 16.759L19.4123 14.5908ZM18.3755 15.9377C18.3165 16.0428 18.1552 16.0678 18.015 15.991C17.8753 15.9123 17.8134 15.763 17.8729 15.6565L18.7729 14.0796C18.8349 13.9726 18.9961 13.9467 19.1349 14.0264C19.2726 14.1051 19.335 14.2577 19.2755 14.3648L18.3755 15.9377ZM24.0549 16.8012C23.9066 16.719 23.7391 16.6779 23.5696 16.6822L22.5851 18.4064C22.6643 18.5509 22.7824 18.6771 22.9379 18.7616C23.3718 19.0073 23.9176 18.8657 24.1561 18.4486L24.4086 18.0022C24.6477 17.5822 24.4902 17.047 24.0549 16.8012ZM11.6521 8.56829C11.6243 8.61769 11.5871 8.66113 11.5424 8.69612C11.4978 8.73111 11.4468 8.75697 11.3922 8.77221C11.3376 8.78746 11.2805 8.79179 11.2242 8.78497C11.1679 8.77815 11.1135 8.7603 11.0641 8.73245L7.19727 6.55229C7.14779 6.52468 7.10428 6.48752 7.06926 6.44297C7.03424 6.39842 7.00842 6.34737 6.99328 6.29276C6.97815 6.23815 6.974 6.18109 6.98108 6.12487C6.98817 6.06865 7.00634 6.01439 7.03455 5.96525C7.09183 5.86597 7.18607 5.79338 7.29669 5.76334C7.40731 5.7333 7.52532 5.74825 7.62495 5.80493L11.4909 7.98221C11.5402 8.00985 11.5835 8.047 11.6184 8.09152C11.6533 8.13604 11.6789 8.18704 11.6939 8.24156C11.709 8.29607 11.713 8.35303 11.7058 8.40911C11.6986 8.4652 11.6804 8.51931 11.6521 8.56829ZM12.1941 7.62173C12.1375 7.72131 12.0437 7.7944 11.9333 7.82499C11.8229 7.85557 11.7049 7.84117 11.6051 7.78493L7.73679 5.60525C7.68744 5.57789 7.64403 5.54097 7.60911 5.49664C7.57418 5.45232 7.54844 5.40148 7.53338 5.3471C7.51832 5.29272 7.51425 5.23588 7.5214 5.1799C7.52855 5.12393 7.54678 5.06994 7.57503 5.02109C7.60293 4.97146 7.64037 4.92783 7.68519 4.89272C7.73001 4.8576 7.78133 4.83169 7.83619 4.81648C7.89106 4.80127 7.94839 4.79706 8.0049 4.80408C8.0614 4.8111 8.11595 4.82923 8.16543 4.85741L12.0323 7.03517C12.0817 7.06281 12.1251 7.09998 12.16 7.14453C12.1949 7.18907 12.2207 7.2401 12.2357 7.29466C12.2507 7.34922 12.2548 7.40623 12.2477 7.46237C12.2405 7.51851 12.2223 7.57268 12.1941 7.62173ZM8.92623 13.3548C8.86868 13.4537 8.77453 13.526 8.66414 13.556C8.55375 13.586 8.43598 13.5713 8.33631 13.5152L4.46655 11.335C4.4172 11.3073 4.37383 11.27 4.33893 11.2255C4.30404 11.1809 4.27831 11.1298 4.26323 11.0753C4.24815 11.0207 4.24401 10.9637 4.25107 10.9075C4.25812 10.8513 4.27621 10.7971 4.30431 10.748C4.36212 10.6494 4.45626 10.5774 4.56655 10.5474C4.67683 10.5174 4.79447 10.5319 4.89423 10.5876L8.76207 12.7678C8.86168 12.8239 8.93494 12.9172 8.96572 13.0273C8.99651 13.1374 8.9823 13.2552 8.92623 13.3548ZM9.46671 12.4049C9.43847 12.4545 9.40073 12.498 9.35564 12.5329C9.31055 12.5678 9.259 12.5935 9.20396 12.6084C9.14892 12.6234 9.09148 12.6273 9.03492 12.62C8.97836 12.6126 8.9238 12.5942 8.87439 12.5657L5.00751 10.388C4.90833 10.3315 4.83555 10.238 4.80506 10.128C4.77458 10.018 4.78886 9.90043 4.84479 9.80093C4.87302 9.75157 4.91071 9.70825 4.95568 9.67346C5.00066 9.63866 5.05205 9.61307 5.10692 9.59813C5.16179 9.5832 5.21906 9.57923 5.27547 9.58643C5.33188 9.59364 5.38631 9.61188 5.43567 9.64013L9.30207 11.8179C9.35143 11.8456 9.39485 11.8828 9.42984 11.9273C9.46483 11.9718 9.49071 12.0228 9.506 12.0773C9.52129 12.1318 9.52569 12.1888 9.51895 12.245C9.5122 12.3012 9.49445 12.3556 9.46671 12.4049ZM2.97759 16.2829H9.79551V17.0667H2.97759V16.2829ZM11.2845 17.9177C11.263 17.7887 11.1965 17.6714 11.0967 17.5868C10.997 17.5022 10.8705 17.4556 10.7397 17.4555H2.03535C1.90448 17.4555 1.77786 17.5019 1.67808 17.5866C1.57829 17.6712 1.51183 17.7886 1.49055 17.9177H1.48047V19.2013H11.2945V17.9177H11.2845Z" fill="black"/>
</g>
<path d="M25.7442 16.5425L25.8606 6.74322L27.6805 6.76484L27.5823 15.0243L32.706 15.0851L32.6877 16.625L25.7442 16.5425ZM37.4007 16.779C36.5701 16.7691 35.8441 16.5972 35.2227 16.2631C34.6107 15.9198 34.1355 15.4568 33.7971 14.8741C33.468 14.2915 33.3078 13.6315 33.3165 12.8942C33.3254 12.1476 33.4965 11.4916 33.83 10.9262C34.1728 10.3515 34.6355 9.90435 35.218 9.58458C35.8098 9.26492 36.4791 9.10952 37.2257 9.11839C37.9536 9.12704 38.6004 9.2934 39.1659 9.61748C39.7314 9.94155 40.174 10.3948 40.4938 10.9773C40.8136 11.5599 40.9688 12.2431 40.9595 13.027C40.9586 13.1017 40.953 13.1856 40.9425 13.2788C40.9414 13.3722 40.9357 13.4608 40.9254 13.5447L34.6958 13.4706L34.7096 12.3087L40.0152 12.3718L39.3249 12.7276C39.3394 12.2984 39.2552 11.9194 39.0724 11.5905C38.8897 11.2616 38.6361 11.0019 38.3116 10.8114C37.9965 10.621 37.629 10.5233 37.209 10.5183C36.7797 10.5132 36.4007 10.602 36.0718 10.7848C35.7523 10.9677 35.4972 11.226 35.3065 11.5598C35.1253 11.8843 35.0321 12.2706 35.0267 12.7185L35.0234 12.9985C35.0181 13.4465 35.116 13.8443 35.3173 14.1921C35.5185 14.5398 35.8046 14.8092 36.1757 15.0003C36.5468 15.1914 36.975 15.2899 37.4603 15.2956C37.8803 15.3006 38.259 15.2398 38.5966 15.1131C38.9341 14.9864 39.2352 14.7847 39.4998 14.5078L40.4249 15.5969C40.0843 15.9848 39.6561 16.2831 39.1402 16.4917C38.6338 16.691 38.054 16.7868 37.4007 16.779ZM45.9508 19.5968C45.2602 19.5886 44.5847 19.4872 43.9243 19.2927C43.2731 19.1076 42.7396 18.8399 42.3237 18.4896L43.1233 17.183C43.4467 17.4575 43.8548 17.6771 44.3475 17.8416C44.8495 18.0156 45.3571 18.1056 45.8704 18.1117C46.6917 18.1215 47.2959 17.9373 47.6831 17.5592C48.0702 17.1905 48.2682 16.6281 48.2772 15.8722L48.293 14.5422L48.4531 12.85L48.4172 11.1555L48.4389 9.33561L50.1047 9.3554L50.0294 15.697C50.0133 17.0502 49.6562 18.04 48.9581 18.6664C48.2598 19.3022 47.2574 19.6123 45.9508 19.5968ZM45.7642 16.4443C45.0549 16.4359 44.4128 16.2789 43.8377 15.9734C43.2721 15.6587 42.8245 15.2287 42.4949 14.6834C42.1747 14.1382 42.0189 13.5016 42.0276 12.7737C42.0361 12.0551 42.2069 11.4271 42.54 10.8896C42.8824 10.3523 43.34 9.93775 43.9129 9.64587C44.495 9.3541 45.1408 9.21242 45.85 9.22085C46.4847 9.22839 47.0525 9.36114 47.5534 9.61911C48.0544 9.87708 48.4511 10.2738 48.7434 10.8093C49.045 11.345 49.1909 12.0281 49.1811 12.8587C49.1712 13.6893 49.0091 14.3734 48.6947 14.911C48.3897 15.4395 47.9837 15.8313 47.4766 16.0867C46.9696 16.3327 46.3989 16.4519 45.7642 16.4443ZM46.0478 14.9636C46.4865 14.9688 46.8795 14.8848 47.2269 14.7116C47.5744 14.529 47.8434 14.2802 48.0338 13.9651C48.2337 13.6408 48.3361 13.2687 48.3411 12.8487C48.3461 12.4287 48.2525 12.0589 48.0603 11.7393C47.8775 11.4104 47.6145 11.1599 47.2712 10.9879C46.928 10.8064 46.537 10.7131 46.0984 10.7079C45.6598 10.7027 45.2621 10.7866 44.9053 10.9597C44.558 11.1236 44.2844 11.3677 44.0846 11.6921C43.8941 12.0071 43.7964 12.3747 43.7914 12.7946C43.7865 13.2146 43.8753 13.589 44.0581 13.9179C44.2503 14.2375 44.518 14.4927 44.8611 14.6835C45.2136 14.865 45.6092 14.9584 46.0478 14.9636ZM56.9222 16.9129L56.9401 15.401L56.8459 15.0779L56.8774 12.4321C56.8835 11.9188 56.7342 11.5203 56.4295 11.2367C56.125 10.9437 55.6601 10.7935 55.0348 10.7861C54.6148 10.7811 54.1988 10.8415 53.7866 10.9673C53.3837 11.0931 53.0409 11.2711 52.7581 11.5011L52.0873 10.219C52.4923 9.9158 52.971 9.69281 53.5234 9.55002C54.0852 9.39802 54.6648 9.32557 55.2621 9.33266C56.3447 9.34552 57.1768 9.61676 57.7586 10.1464C58.3498 10.6668 58.639 11.4683 58.6261 12.5509L58.574 16.9325L56.9222 16.9129ZM54.5692 16.983C54.0092 16.9763 53.5203 16.8772 53.1026 16.6855C52.6849 16.4846 52.3615 16.2147 52.1321 15.8759C51.9123 15.528 51.8049 15.1393 51.81 14.71C51.815 14.2901 51.9174 13.9133 52.1174 13.5796C52.3267 13.2461 52.6612 12.984 53.1208 12.7935C53.5805 12.6029 54.1882 12.5121 54.9442 12.5211L57.114 12.5469L57.1002 13.7088L55.0564 13.6845C54.4591 13.6774 54.0566 13.7707 53.849 13.9642C53.6414 14.1484 53.536 14.3805 53.5327 14.6605C53.5289 14.9778 53.6519 15.2313 53.9017 15.4209C54.1514 15.6106 54.5003 15.7081 54.9483 15.7134C55.3776 15.7185 55.7614 15.625 56.0997 15.433C56.4473 15.2412 56.6981 14.9548 56.8519 14.5739L57.1334 15.6273C56.9602 16.064 56.6529 16.401 56.2114 16.6385C55.7792 16.876 55.2318 16.9908 54.5692 16.983ZM60.8198 16.9592L60.9432 6.57195L62.6931 6.59274L62.5697 16.98L60.8198 16.9592Z" fill="#131313"/>
<path d="M204.345 17V7.2H208.629C209.693 7.2 210.627 7.40533 211.429 7.816C212.232 8.22667 212.857 8.796 213.305 9.524C213.753 10.252 213.977 11.1107 213.977 12.1C213.977 13.08 213.753 13.9387 213.305 14.676C212.857 15.404 212.232 15.9733 211.429 16.384C210.627 16.7947 209.693 17 208.629 17H204.345ZM206.165 15.46H208.545C209.283 15.46 209.917 15.32 210.449 15.04C210.991 14.76 211.406 14.368 211.695 13.864C211.994 13.36 212.143 12.772 212.143 12.1C212.143 11.4187 211.994 10.8307 211.695 10.336C211.406 9.832 210.991 9.44 210.449 9.16C209.917 8.88 209.283 8.74 208.545 8.74H206.165V15.46ZM219.104 17.098C218.338 17.098 217.657 16.9347 217.06 16.608C216.462 16.272 215.991 15.8147 215.646 15.236C215.3 14.6573 215.128 13.9993 215.128 13.262C215.128 12.5153 215.3 11.8573 215.646 11.288C215.991 10.7093 216.462 10.2567 217.06 9.93C217.657 9.60333 218.338 9.44 219.104 9.44C219.878 9.44 220.564 9.60333 221.162 9.93C221.768 10.2567 222.24 10.7047 222.576 11.274C222.921 11.8433 223.094 12.506 223.094 13.262C223.094 13.9993 222.921 14.6573 222.576 15.236C222.24 15.8147 221.768 16.272 221.162 16.608C220.564 16.9347 219.878 17.098 219.104 17.098ZM219.104 15.6C219.533 15.6 219.916 15.5067 220.252 15.32C220.588 15.1333 220.849 14.8627 221.036 14.508C221.232 14.1533 221.33 13.738 221.33 13.262C221.33 12.7767 221.232 12.3613 221.036 12.016C220.849 11.6613 220.588 11.3907 220.252 11.204C219.916 11.0173 219.538 10.924 219.118 10.924C218.688 10.924 218.306 11.0173 217.97 11.204C217.643 11.3907 217.382 11.6613 217.186 12.016C216.99 12.3613 216.892 12.7767 216.892 13.262C216.892 13.738 216.99 14.1533 217.186 14.508C217.382 14.8627 217.643 15.1333 217.97 15.32C218.306 15.5067 218.684 15.6 219.104 15.6ZM228.197 17.098C227.413 17.098 226.713 16.9347 226.097 16.608C225.49 16.272 225.014 15.8147 224.669 15.236C224.324 14.6573 224.151 13.9993 224.151 13.262C224.151 12.5153 224.324 11.8573 224.669 11.288C225.014 10.7093 225.49 10.2567 226.097 9.93C226.713 9.60333 227.413 9.44 228.197 9.44C228.925 9.44 229.564 9.58933 230.115 9.888C230.675 10.1773 231.1 10.6067 231.389 11.176L230.045 11.96C229.821 11.6053 229.546 11.344 229.219 11.176C228.902 11.008 228.556 10.924 228.183 10.924C227.754 10.924 227.366 11.0173 227.021 11.204C226.676 11.3907 226.405 11.6613 226.209 12.016C226.013 12.3613 225.915 12.7767 225.915 13.262C225.915 13.7473 226.013 14.1673 226.209 14.522C226.405 14.8673 226.676 15.1333 227.021 15.32C227.366 15.5067 227.754 15.6 228.183 15.6C228.556 15.6 228.902 15.516 229.219 15.348C229.546 15.18 229.821 14.9187 230.045 14.564L231.389 15.348C231.1 15.908 230.675 16.342 230.115 16.65C229.564 16.9487 228.925 17.098 228.197 17.098ZM236.066 17.098C235.431 17.098 234.871 16.9813 234.386 16.748C233.901 16.5053 233.523 16.1413 233.252 15.656C232.981 15.1613 232.846 14.5407 232.846 13.794V9.524H234.596V13.556C234.596 14.228 234.745 14.732 235.044 15.068C235.352 15.3947 235.786 15.558 236.346 15.558C236.757 15.558 237.111 15.474 237.41 15.306C237.718 15.138 237.956 14.886 238.124 14.55C238.301 14.214 238.39 13.7987 238.39 13.304V9.524H240.14V17H238.474V14.984L238.768 15.6C238.516 16.0853 238.147 16.4587 237.662 16.72C237.177 16.972 236.645 17.098 236.066 17.098ZM251.867 9.44C252.465 9.44 252.992 9.55667 253.449 9.79C253.916 10.0233 254.28 10.3827 254.541 10.868C254.803 11.344 254.933 11.96 254.933 12.716V17H253.183V12.94C253.183 12.2773 253.039 11.7827 252.749 11.456C252.46 11.1293 252.045 10.966 251.503 10.966C251.121 10.966 250.78 11.05 250.481 11.218C250.192 11.386 249.963 11.6333 249.795 11.96C249.637 12.2867 249.557 12.702 249.557 13.206V17H247.807V12.94C247.807 12.2773 247.663 11.7827 247.373 11.456C247.084 11.1293 246.669 10.966 246.127 10.966C245.745 10.966 245.404 11.05 245.105 11.218C244.816 11.386 244.587 11.6333 244.419 11.96C244.261 12.2867 244.181 12.702 244.181 13.206V17H242.431V9.524H244.097V11.512L243.803 10.924C244.055 10.4387 244.419 10.07 244.895 9.818C245.381 9.566 245.931 9.44 246.547 9.44C247.247 9.44 247.854 9.61267 248.367 9.958C248.89 10.3033 249.235 10.826 249.403 11.526L248.717 11.288C248.96 10.728 249.361 10.28 249.921 9.944C250.481 9.608 251.13 9.44 251.867 9.44ZM260.697 17.098C259.866 17.098 259.138 16.9347 258.513 16.608C257.897 16.272 257.416 15.8147 257.071 15.236C256.735 14.6573 256.567 13.9993 256.567 13.262C256.567 12.5153 256.73 11.8573 257.057 11.288C257.393 10.7093 257.85 10.2567 258.429 9.93C259.017 9.60333 259.684 9.44 260.431 9.44C261.159 9.44 261.808 9.59867 262.377 9.916C262.946 10.2333 263.394 10.6813 263.721 11.26C264.048 11.8387 264.211 12.52 264.211 13.304C264.211 13.3787 264.206 13.4627 264.197 13.556C264.197 13.6493 264.192 13.738 264.183 13.822H257.953V12.66H263.259L262.573 13.024C262.582 12.5947 262.494 12.2167 262.307 11.89C262.12 11.5633 261.864 11.3067 261.537 11.12C261.22 10.9333 260.851 10.84 260.431 10.84C260.002 10.84 259.624 10.9333 259.297 11.12C258.98 11.3067 258.728 11.568 258.541 11.904C258.364 12.2307 258.275 12.618 258.275 13.066V13.346C258.275 13.794 258.378 14.1907 258.583 14.536C258.788 14.8813 259.078 15.1473 259.451 15.334C259.824 15.5207 260.254 15.614 260.739 15.614C261.159 15.614 261.537 15.5487 261.873 15.418C262.209 15.2873 262.508 15.082 262.769 14.802L263.707 15.88C263.371 16.272 262.946 16.5753 262.433 16.79C261.929 16.9953 261.35 17.098 260.697 17.098ZM270.134 9.44C270.731 9.44 271.263 9.55667 271.73 9.79C272.206 10.0233 272.579 10.3827 272.85 10.868C273.121 11.344 273.256 11.96 273.256 12.716V17H271.506V12.94C271.506 12.2773 271.347 11.7827 271.03 11.456C270.722 11.1293 270.288 10.966 269.728 10.966C269.317 10.966 268.953 11.05 268.636 11.218C268.319 11.386 268.071 11.638 267.894 11.974C267.726 12.3007 267.642 12.716 267.642 13.22V17H265.892V9.524H267.558V11.54L267.264 10.924C267.525 10.448 267.903 10.084 268.398 9.832C268.902 9.57067 269.481 9.44 270.134 9.44ZM278.29 17.098C277.469 17.098 276.834 16.888 276.386 16.468C275.938 16.0387 275.714 15.4087 275.714 14.578V7.872H277.464V14.536C277.464 14.8907 277.553 15.166 277.73 15.362C277.917 15.558 278.173 15.656 278.5 15.656C278.892 15.656 279.219 15.5533 279.48 15.348L279.97 16.594C279.765 16.762 279.513 16.888 279.214 16.972C278.915 17.056 278.607 17.098 278.29 17.098ZM274.482 10.98V9.58H279.466V10.98H274.482ZM283.72 17.098C283.094 17.098 282.492 17.0187 281.914 16.86C281.344 16.692 280.892 16.4913 280.556 16.258L281.228 14.928C281.564 15.1427 281.965 15.32 282.432 15.46C282.898 15.6 283.365 15.67 283.832 15.67C284.382 15.67 284.779 15.5953 285.022 15.446C285.274 15.2967 285.4 15.096 285.4 14.844C285.4 14.6387 285.316 14.4847 285.148 14.382C284.98 14.27 284.76 14.186 284.49 14.13C284.219 14.074 283.916 14.0227 283.58 13.976C283.253 13.9293 282.922 13.8687 282.586 13.794C282.259 13.71 281.96 13.5933 281.69 13.444C281.419 13.2853 281.2 13.0753 281.032 12.814C280.864 12.5527 280.78 12.2073 280.78 11.778C280.78 11.302 280.915 10.8913 281.186 10.546C281.456 10.1913 281.834 9.92067 282.32 9.734C282.814 9.538 283.398 9.44 284.07 9.44C284.574 9.44 285.082 9.496 285.596 9.608C286.109 9.72 286.534 9.87867 286.87 10.084L286.198 11.414C285.843 11.1993 285.484 11.0547 285.12 10.98C284.765 10.896 284.41 10.854 284.056 10.854C283.524 10.854 283.127 10.9333 282.866 11.092C282.614 11.2507 282.488 11.4513 282.488 11.694C282.488 11.918 282.572 12.086 282.74 12.198C282.908 12.31 283.127 12.3987 283.398 12.464C283.668 12.5293 283.967 12.5853 284.294 12.632C284.63 12.6693 284.961 12.73 285.288 12.814C285.614 12.898 285.913 13.0147 286.184 13.164C286.464 13.304 286.688 13.5047 286.856 13.766C287.024 14.0273 287.108 14.368 287.108 14.788C287.108 15.2547 286.968 15.6607 286.688 16.006C286.417 16.3513 286.03 16.622 285.526 16.818C285.022 17.0047 284.42 17.098 283.72 17.098Z" fill="#131313"/>
<path d="M37.3509 81V72.74H34.1029V71.2H42.4189V72.74H39.1709V81H37.3509ZM46.3651 81.098C45.5345 81.098 44.8065 80.9347 44.1811 80.608C43.5651 80.272 43.0845 79.8147 42.7391 79.236C42.4031 78.6573 42.2351 77.9993 42.2351 77.262C42.2351 76.5153 42.3985 75.8573 42.7251 75.288C43.0611 74.7093 43.5185 74.2567 44.0971 73.93C44.6851 73.6033 45.3525 73.44 46.0991 73.44C46.8271 73.44 47.4758 73.5987 48.0451 73.916C48.6145 74.2333 49.0625 74.6813 49.3891 75.26C49.7158 75.8387 49.8791 76.52 49.8791 77.304C49.8791 77.3787 49.8745 77.4627 49.8651 77.556C49.8651 77.6493 49.8605 77.738 49.8511 77.822H43.6211V76.66H48.9271L48.2411 77.024C48.2505 76.5947 48.1618 76.2167 47.9751 75.89C47.7885 75.5633 47.5318 75.3067 47.2051 75.12C46.8878 74.9333 46.5191 74.84 46.0991 74.84C45.6698 74.84 45.2918 74.9333 44.9651 75.12C44.6478 75.3067 44.3958 75.568 44.2091 75.904C44.0318 76.2307 43.9431 76.618 43.9431 77.066V77.346C43.9431 77.794 44.0458 78.1907 44.2511 78.536C44.4565 78.8813 44.7458 79.1473 45.1191 79.334C45.4925 79.5207 45.9218 79.614 46.4071 79.614C46.8271 79.614 47.2051 79.5487 47.5411 79.418C47.8771 79.2873 48.1758 79.082 48.4371 78.802L49.3751 79.88C49.0391 80.272 48.6145 80.5753 48.1011 80.79C47.5971 80.9953 47.0185 81.098 46.3651 81.098ZM51.5601 81V73.524H53.2261V75.582L53.0301 74.98C53.2541 74.476 53.6041 74.0933 54.0801 73.832C54.5654 73.5707 55.1674 73.44 55.8861 73.44V75.106C55.8114 75.0873 55.7414 75.078 55.6761 75.078C55.6108 75.0687 55.5454 75.064 55.4801 75.064C54.8174 75.064 54.2901 75.26 53.8981 75.652C53.5061 76.0347 53.3101 76.6087 53.3101 77.374V81H51.5601ZM66.8067 73.44C67.404 73.44 67.9313 73.5567 68.3887 73.79C68.8553 74.0233 69.2193 74.3827 69.4807 74.868C69.742 75.344 69.8727 75.96 69.8727 76.716V81H68.1227V76.94C68.1227 76.2773 67.978 75.7827 67.6887 75.456C67.3993 75.1293 66.984 74.966 66.4427 74.966C66.06 74.966 65.7193 75.05 65.4207 75.218C65.1313 75.386 64.9027 75.6333 64.7347 75.96C64.576 76.2867 64.4967 76.702 64.4967 77.206V81H62.7467V76.94C62.7467 76.2773 62.602 75.7827 62.3127 75.456C62.0233 75.1293 61.608 74.966 61.0667 74.966C60.684 74.966 60.3433 75.05 60.0447 75.218C59.7553 75.386 59.5267 75.6333 59.3587 75.96C59.2 76.2867 59.1207 76.702 59.1207 77.206V81H57.3707V73.524H59.0367V75.512L58.7427 74.924C58.9947 74.4387 59.3587 74.07 59.8347 73.818C60.32 73.566 60.8707 73.44 61.4867 73.44C62.1867 73.44 62.7933 73.6127 63.3067 73.958C63.8293 74.3033 64.1747 74.826 64.3427 75.526L63.6567 75.288C63.8993 74.728 64.3007 74.28 64.8607 73.944C65.4207 73.608 66.0693 73.44 66.8067 73.44ZM74.4189 81.098C73.7936 81.098 73.1916 81.0187 72.6129 80.86C72.0436 80.692 71.5909 80.4913 71.2549 80.258L71.9269 78.928C72.2629 79.1427 72.6643 79.32 73.1309 79.46C73.5976 79.6 74.0643 79.67 74.5309 79.67C75.0816 79.67 75.4783 79.5953 75.7209 79.446C75.9729 79.2967 76.0989 79.096 76.0989 78.844C76.0989 78.6387 76.0149 78.4847 75.8469 78.382C75.6789 78.27 75.4596 78.186 75.1889 78.13C74.9183 78.074 74.6149 78.0227 74.2789 77.976C73.9523 77.9293 73.6209 77.8687 73.2849 77.794C72.9583 77.71 72.6596 77.5933 72.3889 77.444C72.1183 77.2853 71.8989 77.0753 71.7309 76.814C71.5629 76.5527 71.4789 76.2073 71.4789 75.778C71.4789 75.302 71.6143 74.8913 71.8849 74.546C72.1556 74.1913 72.5336 73.9207 73.0189 73.734C73.5136 73.538 74.0969 73.44 74.7689 73.44C75.2729 73.44 75.7816 73.496 76.2949 73.608C76.8083 73.72 77.2329 73.8787 77.5689 74.084L76.8969 75.414C76.5423 75.1993 76.1829 75.0547 75.8189 74.98C75.4643 74.896 75.1096 74.854 74.7549 74.854C74.2229 74.854 73.8263 74.9333 73.5649 75.092C73.3129 75.2507 73.1869 75.4513 73.1869 75.694C73.1869 75.918 73.2709 76.086 73.4389 76.198C73.6069 76.31 73.8263 76.3987 74.0969 76.464C74.3676 76.5293 74.6663 76.5853 74.9929 76.632C75.3289 76.6693 75.6603 76.73 75.9869 76.814C76.3136 76.898 76.6123 77.0147 76.8829 77.164C77.1629 77.304 77.3869 77.5047 77.5549 77.766C77.7229 78.0273 77.8069 78.368 77.8069 78.788C77.8069 79.2547 77.6669 79.6607 77.3869 80.006C77.1163 80.3513 76.7289 80.622 76.2249 80.818C75.7209 81.0047 75.1189 81.098 74.4189 81.098Z" fill="#131313"/>
<g clip-path="url(#clip2_102_1273)">
<path d="M178.688 75.7814L174.271 73.2902L175.806 70.5974L180.225 73.0872L178.688 75.7814ZM187.506 78.0796L180.041 73.8748L179.274 75.2227L186.738 79.428L187.506 78.0796ZM188.412 78.5908L187.642 79.9377L191.492 82.1044L192.262 80.759L188.412 78.5908ZM187.376 79.9377C187.316 80.0428 187.155 80.0678 187.015 79.991C186.875 79.9123 186.813 79.763 186.873 79.6565L187.773 78.0796C187.835 77.9726 187.996 77.9467 188.135 78.0264C188.273 78.1051 188.335 78.2577 188.276 78.3648L187.376 79.9377ZM193.055 80.8012C192.907 80.719 192.739 80.6779 192.57 80.6822L191.585 82.4064C191.664 82.5509 191.782 82.6771 191.938 82.7616C192.372 83.0073 192.918 82.8657 193.156 82.4486L193.409 82.0022C193.648 81.5822 193.49 81.047 193.055 80.8012ZM180.652 72.5683C180.624 72.6177 180.587 72.6611 180.542 72.6961C180.498 72.7311 180.447 72.757 180.392 72.7722C180.338 72.7875 180.28 72.7918 180.224 72.785C180.168 72.7781 180.114 72.7603 180.064 72.7325L176.197 70.5523C176.148 70.5247 176.104 70.4875 176.069 70.443C176.034 70.3984 176.008 70.3474 175.993 70.2928C175.978 70.2382 175.974 70.1811 175.981 70.1249C175.988 70.0686 176.006 70.0144 176.035 69.9652C176.092 69.866 176.186 69.7934 176.297 69.7633C176.407 69.7333 176.525 69.7483 176.625 69.8049L180.491 71.9822C180.54 72.0098 180.584 72.047 180.618 72.0915C180.653 72.136 180.679 72.187 180.694 72.2416C180.709 72.2961 180.713 72.353 180.706 72.4091C180.699 72.4652 180.68 72.5193 180.652 72.5683ZM181.194 71.6217C181.137 71.7213 181.044 71.7944 180.933 71.825C180.823 71.8556 180.705 71.8412 180.605 71.7849L176.737 69.6052C176.687 69.5779 176.644 69.541 176.609 69.4966C176.574 69.4523 176.548 69.4015 176.533 69.3471C176.518 69.2927 176.514 69.2359 176.521 69.1799C176.529 69.1239 176.547 69.0699 176.575 69.0211C176.603 68.9715 176.64 68.9278 176.685 68.8927C176.73 68.8576 176.781 68.8317 176.836 68.8165C176.891 68.8013 176.948 68.7971 177.005 68.8041C177.061 68.8111 177.116 68.8292 177.165 68.8574L181.032 71.0352C181.082 71.0628 181.125 71.1 181.16 71.1445C181.195 71.1891 181.221 71.2401 181.236 71.2947C181.251 71.3492 181.255 71.4062 181.248 71.4624C181.241 71.5185 181.222 71.5727 181.194 71.6217ZM177.926 77.3548C177.869 77.4537 177.775 77.526 177.664 77.556C177.554 77.586 177.436 77.5713 177.336 77.5152L173.467 75.335C173.417 75.3073 173.374 75.27 173.339 75.2255C173.304 75.1809 173.278 75.1298 173.263 75.0753C173.248 75.0207 173.244 74.9637 173.251 74.9075C173.258 74.8513 173.276 74.7971 173.304 74.748C173.362 74.6494 173.456 74.5774 173.567 74.5474C173.677 74.5174 173.794 74.5319 173.894 74.5876L177.762 76.7678C177.862 76.8239 177.935 76.9172 177.966 77.0273C177.997 77.1374 177.982 77.2552 177.926 77.3548ZM178.467 76.4049C178.438 76.4545 178.401 76.498 178.356 76.5329C178.311 76.5678 178.259 76.5935 178.204 76.6084C178.149 76.6234 178.091 76.6273 178.035 76.62C177.978 76.6126 177.924 76.5942 177.874 76.5657L174.008 74.388C173.908 74.3315 173.836 74.238 173.805 74.128C173.775 74.018 173.789 73.9004 173.845 73.8009C173.873 73.7516 173.911 73.7083 173.956 73.6735C174.001 73.6387 174.052 73.6131 174.107 73.5981C174.162 73.5832 174.219 73.5792 174.275 73.5864C174.332 73.5936 174.386 73.6119 174.436 73.6401L178.302 75.8179C178.351 75.8456 178.395 75.8828 178.43 75.9273C178.465 75.9718 178.491 76.0228 178.506 76.0773C178.521 76.1318 178.526 76.1888 178.519 76.245C178.512 76.3012 178.494 76.3556 178.467 76.4049ZM171.978 80.2829H178.796V81.0667H171.978V80.2829ZM180.284 81.9177C180.263 81.7887 180.196 81.6714 180.097 81.5868C179.997 81.5022 179.87 81.4556 179.74 81.4555H171.035C170.904 81.4555 170.778 81.5019 170.678 81.5866C170.578 81.6712 170.512 81.7886 170.491 81.9177H170.48V83.2013H180.295V81.9177H180.284Z" fill="black"/>
</g>
<path d="M204.345 81V71.2H208.377C209.245 71.2 209.987 71.34 210.603 71.62C211.229 71.9 211.709 72.3013 212.045 72.824C212.381 73.3467 212.549 73.9673 212.549 74.686C212.549 75.4047 212.381 76.0253 212.045 76.548C211.709 77.0707 211.229 77.472 210.603 77.752C209.987 78.032 209.245 78.172 208.377 78.172H205.353L206.165 77.318V81H204.345ZM206.165 77.514L205.353 76.632H208.293C209.096 76.632 209.698 76.464 210.099 76.128C210.51 75.7827 210.715 75.302 210.715 74.686C210.715 74.0607 210.51 73.58 210.099 73.244C209.698 72.908 209.096 72.74 208.293 72.74H205.353L206.165 71.844V77.514ZM217.531 81.098C216.766 81.098 216.085 80.9347 215.487 80.608C214.89 80.272 214.419 79.8147 214.073 79.236C213.728 78.6573 213.555 77.9993 213.555 77.262C213.555 76.5153 213.728 75.8573 214.073 75.288C214.419 74.7093 214.89 74.2567 215.487 73.93C216.085 73.6033 216.766 73.44 217.531 73.44C218.306 73.44 218.992 73.6033 219.589 73.93C220.196 74.2567 220.667 74.7047 221.003 75.274C221.349 75.8433 221.521 76.506 221.521 77.262C221.521 77.9993 221.349 78.6573 221.003 79.236C220.667 79.8147 220.196 80.272 219.589 80.608C218.992 80.9347 218.306 81.098 217.531 81.098ZM217.531 79.6C217.961 79.6 218.343 79.5067 218.679 79.32C219.015 79.1333 219.277 78.8627 219.463 78.508C219.659 78.1533 219.757 77.738 219.757 77.262C219.757 76.7767 219.659 76.3613 219.463 76.016C219.277 75.6613 219.015 75.3907 218.679 75.204C218.343 75.0173 217.965 74.924 217.545 74.924C217.116 74.924 216.733 75.0173 216.397 75.204C216.071 75.3907 215.809 75.6613 215.613 76.016C215.417 76.3613 215.319 76.7767 215.319 77.262C215.319 77.738 215.417 78.1533 215.613 78.508C215.809 78.8627 216.071 79.1333 216.397 79.32C216.733 79.5067 217.111 79.6 217.531 79.6ZM223.195 81V70.612H224.945V81H223.195ZM227.242 81V73.524H228.992V81H227.242ZM228.124 72.292C227.797 72.292 227.526 72.1893 227.312 71.984C227.106 71.7787 227.004 71.5313 227.004 71.242C227.004 70.9433 227.106 70.696 227.312 70.5C227.526 70.2947 227.797 70.192 228.124 70.192C228.45 70.192 228.716 70.29 228.922 70.486C229.136 70.6727 229.244 70.9107 229.244 71.2C229.244 71.508 229.141 71.7693 228.936 71.984C228.73 72.1893 228.46 72.292 228.124 72.292ZM234.719 81.098C233.935 81.098 233.235 80.9347 232.619 80.608C232.012 80.272 231.536 79.8147 231.191 79.236C230.845 78.6573 230.673 77.9993 230.673 77.262C230.673 76.5153 230.845 75.8573 231.191 75.288C231.536 74.7093 232.012 74.2567 232.619 73.93C233.235 73.6033 233.935 73.44 234.719 73.44C235.447 73.44 236.086 73.5893 236.637 73.888C237.197 74.1773 237.621 74.6067 237.911 75.176L236.567 75.96C236.343 75.6053 236.067 75.344 235.741 75.176C235.423 75.008 235.078 74.924 234.705 74.924C234.275 74.924 233.888 75.0173 233.543 75.204C233.197 75.3907 232.927 75.6613 232.731 76.016C232.535 76.3613 232.437 76.7767 232.437 77.262C232.437 77.7473 232.535 78.1673 232.731 78.522C232.927 78.8673 233.197 79.1333 233.543 79.32C233.888 79.5067 234.275 79.6 234.705 79.6C235.078 79.6 235.423 79.516 235.741 79.348C236.067 79.18 236.343 78.9187 236.567 78.564L237.911 79.348C237.621 79.908 237.197 80.342 236.637 80.65C236.086 80.9487 235.447 81.098 234.719 81.098ZM239.355 81V73.524H241.105V81H239.355ZM240.237 72.292C239.91 72.292 239.64 72.1893 239.425 71.984C239.22 71.7787 239.117 71.5313 239.117 71.242C239.117 70.9433 239.22 70.696 239.425 70.5C239.64 70.2947 239.91 70.192 240.237 70.192C240.564 70.192 240.83 70.29 241.035 70.486C241.25 70.6727 241.357 70.9107 241.357 71.2C241.357 71.508 241.254 71.7693 241.049 71.984C240.844 72.1893 240.573 72.292 240.237 72.292ZM246.916 81.098C246.085 81.098 245.357 80.9347 244.732 80.608C244.116 80.272 243.635 79.8147 243.29 79.236C242.954 78.6573 242.786 77.9993 242.786 77.262C242.786 76.5153 242.949 75.8573 243.276 75.288C243.612 74.7093 244.069 74.2567 244.648 73.93C245.236 73.6033 245.903 73.44 246.65 73.44C247.378 73.44 248.027 73.5987 248.596 73.916C249.165 74.2333 249.613 74.6813 249.94 75.26C250.267 75.8387 250.43 76.52 250.43 77.304C250.43 77.3787 250.425 77.4627 250.416 77.556C250.416 77.6493 250.411 77.738 250.402 77.822H244.172V76.66H249.478L248.792 77.024C248.801 76.5947 248.713 76.2167 248.526 75.89C248.339 75.5633 248.083 75.3067 247.756 75.12C247.439 74.9333 247.07 74.84 246.65 74.84C246.221 74.84 245.843 74.9333 245.516 75.12C245.199 75.3067 244.947 75.568 244.76 75.904C244.583 76.2307 244.494 76.618 244.494 77.066V77.346C244.494 77.794 244.597 78.1907 244.802 78.536C245.007 78.8813 245.297 79.1473 245.67 79.334C246.043 79.5207 246.473 79.614 246.958 79.614C247.378 79.614 247.756 79.5487 248.092 79.418C248.428 79.2873 248.727 79.082 248.988 78.802L249.926 79.88C249.59 80.272 249.165 80.5753 248.652 80.79C248.148 80.9953 247.569 81.098 246.916 81.098ZM254.421 81.098C253.796 81.098 253.194 81.0187 252.615 80.86C252.046 80.692 251.593 80.4913 251.257 80.258L251.929 78.928C252.265 79.1427 252.666 79.32 253.133 79.46C253.6 79.6 254.066 79.67 254.533 79.67C255.084 79.67 255.48 79.5953 255.723 79.446C255.975 79.2967 256.101 79.096 256.101 78.844C256.101 78.6387 256.017 78.4847 255.849 78.382C255.681 78.27 255.462 78.186 255.191 78.13C254.92 78.074 254.617 78.0227 254.281 77.976C253.954 77.9293 253.623 77.8687 253.287 77.794C252.96 77.71 252.662 77.5933 252.391 77.444C252.12 77.2853 251.901 77.0753 251.733 76.814C251.565 76.5527 251.481 76.2073 251.481 75.778C251.481 75.302 251.616 74.8913 251.887 74.546C252.158 74.1913 252.536 73.9207 253.021 73.734C253.516 73.538 254.099 73.44 254.771 73.44C255.275 73.44 255.784 73.496 256.297 73.608C256.81 73.72 257.235 73.8787 257.571 74.084L256.899 75.414C256.544 75.1993 256.185 75.0547 255.821 74.98C255.466 74.896 255.112 74.854 254.757 74.854C254.225 74.854 253.828 74.9333 253.567 75.092C253.315 75.2507 253.189 75.4513 253.189 75.694C253.189 75.918 253.273 76.086 253.441 76.198C253.609 76.31 253.828 76.3987 254.099 76.464C254.37 76.5293 254.668 76.5853 254.995 76.632C255.331 76.6693 255.662 76.73 255.989 76.814C256.316 76.898 256.614 77.0147 256.885 77.164C257.165 77.304 257.389 77.5047 257.557 77.766C257.725 78.0273 257.809 78.368 257.809 78.788C257.809 79.2547 257.669 79.6607 257.389 80.006C257.118 80.3513 256.731 80.622 256.227 80.818C255.723 81.0047 255.121 81.098 254.421 81.098Z" fill="#131313"/>
<path d="M194 8L188 2H180C179.47 2 178.961 2.21071 178.586 2.58579C178.211 2.96086 178 3.46957 178 4V20C178 20.5304 178.211 21.0391 178.586 21.4142C178.961 21.7893 179.47 22 180 22H192C192.53 22 193.039 21.7893 193.414 21.4142C193.789 21.0391 194 20.5304 194 20V8ZM183 19H181V10H183V19ZM187 19H185V13H187V19ZM191 19H189V16H191V19ZM188 9H187V4L192 9H188Z" fill="black"/>
<defs>
<clipPath id="clip0_102_1273">
<rect width="23.9975" height="24" fill="white" transform="translate(0.0507812 64)"/>
</clipPath>
<clipPath id="clip1_102_1273">
<rect width="23.9975" height="24" fill="white" transform="translate(0.0507812)"/>
</clipPath>
<clipPath id="clip2_102_1273">
<rect width="23.9975" height="24" fill="white" transform="translate(169.033 64)"/>
</clipPath>
</defs>
</svg>
