<svg width="322" height="74" viewBox="0 0 322 74" fill="none" xmlns="http://www.w3.org/2000/svg">
<path d="M181.241 3.77732C149.318 -0.664431 117.603 0.575761 90.7888 4.18215C64.3677 7.74312 41.1536 13.4292 22.8897 20.8153C13.6225 24.5665 5.35324 28.8734 1.90714 34.1186C-1.29628 38.971 -0.182574 44.6458 7.31277 49.9097C14.8081 55.1736 27.0284 59.0335 39.9746 62.1061C55.2135 65.7271 71.7028 68.3069 88.1807 70.0778C120.716 73.571 153.843 74.296 184.806 73.5603C215.769 72.8247 243.812 70.4096 269.985 66.3743C294.055 62.6695 318.307 56.9504 321.552 46.3366C323.037 41.4753 319.767 36.0997 310.477 31.412C301.186 26.7244 288.279 23.4472 275.198 20.7912C242.878 14.2315 207.648 10.873 174.173 9.38348C140.697 7.894 105.237 8.3169 71.7999 9.20914C63.7004 9.42234 55.6344 9.67144 47.5689 9.9141C46.5494 9.94248 44.6936 10.2 45.5837 10.7254C46.4738 11.2509 49.1358 11.2499 50.2481 11.2177C81.9334 10.2807 113.746 9.36292 146.503 9.90759C179.26 10.4523 212.128 12.4674 244.644 17.2616C270.876 21.1279 304.077 27.3912 312.553 38.3623C316.431 43.3818 314.661 48.3189 309.364 52.304C303.765 56.5197 293.972 59.6189 283.18 61.9799C272.389 64.341 259.554 66.2437 246.832 67.7668C234.109 69.2898 220.308 70.5032 206.348 71.2836C178.24 72.8584 148.306 72.9216 118.058 71.1359C101.997 70.1884 85.7001 68.6376 69.8684 66.1365C55.4924 63.8657 40.9888 60.8394 29.0178 56.7047C17.3855 52.695 9.76832 47.7252 7.79828 42.4794C5.82824 37.2336 9.53982 32.1063 16.0367 27.9609C22.6728 23.7187 31.9617 20.1195 41.7838 16.9189C51.6059 13.7183 62.3585 11.0081 74.0659 8.73207C97.2931 4.20691 125.028 0.998799 155.02 2.57004C162.34 2.94985 169.758 3.63273 177.032 4.64647C178.618 4.86368 180.549 4.96547 181.798 4.67341C182.726 4.45345 182.754 3.98722 181.241 3.77732Z" fill="#FDDF67"/>
</svg>
